<svg version="1.1" xmlns="http://www.w3.org/2000/svg" xmlns:xlink="http://www.w3.org/1999/xlink" width="527.88132" height="379" viewBox="0,0,527.88132,379"><defs><linearGradient x1="241.00001" y1="-19" x2="241.00001" y2="189" gradientUnits="userSpaceOnUse" id="color-1"><stop offset="0" stop-color="#0069e6"/><stop offset="1" stop-color="#00ace6"/></linearGradient><linearGradient x1="224.55935" y1="87.5" x2="224.55935" y2="177.63324" gradientUnits="userSpaceOnUse" id="color-2"><stop offset="0" stop-color="#007ee6"/><stop offset="1" stop-color="#e6e6e6"/></linearGradient><linearGradient x1="224.05935" y1="127" x2="224.05935" y2="177.63324" gradientUnits="userSpaceOnUse" id="color-3"><stop offset="0" stop-color="#ffffff"/><stop offset="1" stop-color="#eeeeee"/></linearGradient></defs><g transform="translate(33.38131,19)"><g data-paper-data="{&quot;isPaintingLayer&quot;:true}" fill-rule="nonzero" stroke="none" stroke-linecap="butt" stroke-linejoin="miter" stroke-miterlimit="10" stroke-dasharray="" stroke-dashoffset="0" style="mix-blend-mode: normal"><path d="M-12.49999,189v-208h507v208z" fill="url(#color-1)" stroke-width="0"/><path d="M-1.49999,332v-195c0,0 48.41142,24 72,24c6.35411,0 31.54594,-7.29244 51.29588,-11.72166c7.9741,-1.78831 15.06108,-3.10987 19.66289,-3.29625c6.63126,-0.26857 33.38677,8.26586 62.97237,12.4991c26.0783,3.73141 55.24763,3.22881 62.18525,2.99661c19.21904,-0.64327 42.35681,-0.86082 64.68855,-4.40307c23.41163,-3.71354 45.93737,-10.78394 62.13335,-12.61923c18.77253,-2.12726 43.09993,7.35205 55.39074,6.26508c29.70269,-2.62683 32.67096,-13.72058 32.67096,-13.72058v195z" fill="#e5d9b7" stroke-width="0"/><path d="M-0.49999,347v-195c0,0 48.41142,24 72,24c8.9196,0 54.95937,-14.36992 70.95877,-15.01791c6.63126,-0.26857 33.38677,8.26586 62.97237,12.4991c26.0783,3.73141 55.24763,3.22881 62.18525,2.99661c19.21904,-0.64327 42.35681,-0.86082 64.68855,-4.40307c23.41163,-3.71354 45.93737,-10.78394 62.13335,-12.61923c18.77253,-2.12726 43.09993,7.35205 55.39074,6.26508c29.70269,-2.62683 32.67096,-13.72058 32.67096,-13.72058v195z" fill="#f7eac5" stroke-width="0"/><path d="M-1.49999,360v-195c0,0 48.41142,24 72,24c8.9196,0 54.95937,-14.36992 70.95877,-15.01791c6.63126,-0.26857 33.38677,8.26586 62.97237,12.4991c26.0783,3.73141 55.24763,3.22881 62.18525,2.99661c19.21904,-0.64327 42.35681,-0.86082 64.68855,-4.40307c23.41163,-3.71354 45.93737,-10.78394 62.13335,-12.61923c18.77253,-2.12726 43.09993,7.35205 55.39074,6.26508c29.70269,-2.62683 32.67096,-13.72058 32.67096,-13.72058v195z" fill="#fff2cb" stroke-width="0"/><path d="M60.00001,167.6054c-164.88722,-103.21883 -60,-34.71234 -60,-34.71234l-1,-45.39306c0,0 48.41142,28.72288 72,28.72288c8.9196,0 54.95937,-11.58018 70.95877,-12.73368c6.39167,-0.46081 34.97966,9.63687 63.27744,17.40421c1.06074,0.29116 41.62599,4.57342 42.69493,4.84569c26.0783,6.64236 51.24763,-5.25233 58.18525,-5.66568c19.21904,-1.1451 44.35681,-17.53236 66.68855,-23.83799c23.41163,-6.61055 19.93737,-3.1967 41.13335,3.53626c18.77253,8.21322 23.09993,14.08753 35.39074,12.15259c29.70269,-4.67607 32.67096,-24.42428 32.67096,-24.42428v53.4036c0,0 -20.10371,3.78033 -57.99399,4.01125c-16.51181,0.10063 -20.19942,42.78928 -54.18134,11.8132c-7.13119,-6.50041 -57.54128,26.30225 -65.23687,20.12696c-5.38604,-4.322 -40.85924,-13.88451 -46.41744,-17.99085c-8.93545,-6.60142 -46.96933,20.77732 -56.077,14.53968c-9.27222,-6.35033 -50.49857,-26.67376 -59.63793,-32.43097c-27.77873,-17.49881 -57.65986,42.15447 -82.45543,26.63253z" fill="url(#color-2)" stroke-width="0"/><path d="M59.50001,172c-164.88722,-57.9842 -60,-19.5 -60,-19.5l-1,-25.5c0,0 48.41142,24 72,24c8.9196,0 54.95937,-14.36992 70.95877,-15.01791c6.63126,-0.26857 33.38677,8.26586 62.97237,12.4991c26.0783,3.73141 55.24763,3.22881 62.18525,2.99661c19.21904,-0.64327 42.35681,-0.86082 64.68855,-4.40307c23.41163,-3.71354 45.93737,-10.78394 62.13335,-12.61923c18.77253,-2.12726 43.09993,7.35205 55.39074,6.26508c29.70269,-2.62683 32.67096,-13.72058 32.67096,-13.72058v30c0,0 -20.10371,2.12364 -57.99399,2.25336c-16.51181,0.05653 -20.19942,24.0373 -54.18134,6.63618c-7.13119,-3.65167 -57.54128,14.77555 -65.23687,11.30652c-5.38604,-2.42793 -40.85924,-7.79976 -46.41744,-10.10654c-8.93545,-3.70841 -46.96933,11.67187 -56.077,8.16781c-9.27222,-3.56736 -50.49857,-14.98425 -59.63793,-18.21842c-27.77873,-9.83013 -57.65986,23.68069 -82.45543,14.96109z" fill="url(#color-3)" stroke-width="0"/><text transform="translate(7.05935,24.5) scale(0.5,0.5)" font-size="40" xml:space="preserve" fill="#ffffff" fill-rule="nonzero" stroke="none" stroke-width="1" stroke-linecap="butt" stroke-linejoin="miter" stroke-miterlimit="10" stroke-dasharray="" stroke-dashoffset="0" font-family="Sans Serif" font-weight="normal" text-anchor="start" style="mix-blend-mode: normal"><tspan x="0" dy="0">Time:</tspan></text><text transform="translate(227.05935,25.5) scale(0.5,0.5)" font-size="40" xml:space="preserve" fill="#ffffff" fill-rule="nonzero" stroke="none" stroke-width="1" stroke-linecap="butt" stroke-linejoin="miter" stroke-miterlimit="10" stroke-dasharray="" stroke-dashoffset="0" font-family="Sans Serif" font-weight="normal" text-anchor="start" style="mix-blend-mode: normal"><tspan x="0" dy="0">Try to beat the highscore!</tspan></text></g></g></svg>