<svg version="1.1" xmlns="http://www.w3.org/2000/svg" xmlns:xlink="http://www.w3.org/1999/xlink" width="117.89789" height="129.33278" viewBox="0,0,117.89789,129.33278"><g transform="translate(-181.99874,-113.00088)"><g data-paper-data="{&quot;isPaintingLayer&quot;:true}" fill-rule="nonzero" stroke="none" stroke-width="1" stroke-linecap="butt" stroke-linejoin="miter" stroke-miterlimit="10" stroke-dasharray="" stroke-dashoffset="0" style="mix-blend-mode: normal"><path d="M253.206,132.417c-0.001,0 8.099,9.887 11.24,17.75c2.931,7.332 3.369,9.251 6.578,8.732c0.232,-0.007 0.475,-0.043 0.74,-0.147c4.713,-1.863 16.634,-11.475 21.442,-8.273c10.489,6.983 -9.133,27.932 -16.433,31.05c2.086,3.045 9.72,16.013 11.978,24.227c1.376,5.014 3.223,14.955 -1.265,18.934c-7.728,6.853 -24.933,-20.06 -27.147,-20.018c-2.213,0.041 -14.144,18.614 -21.557,25.564c-6.828,6.405 -18.938,9.171 -25.549,8.227c-2.182,-0.312 -4.689,-2.531 -5.589,-4.398c-3.031,-6.293 0.415,-13.597 3.46,-19.129c5.658,-10.275 12.09,-19.732 14.704,-25.117c-5.608,-1.203 -16.959,-5.68 -21.091,-7.971c-5.778,-3.204 -21.188,-14.08 -16.767,-21.868c5.421,-9.549 33.486,0.354 42.649,0.638c1.577,0.05 2.566,-0.537 2.594,-1.722c0.328,-13.576 -15.687,-25.543 -10.544,-37.727c1.327,-3.141 3.904,-4.258 7.289,-4.735c9.743,-1.371 15.932,8.974 23.268,15.983z" fill="#ff13fa"/><path d="M281.895,182.929c7.287,9.888 14.334,24.977 12.91,37.36c-0.409,3.541 -2.868,7.267 -6.391,8.542c-2.859,1.038 -7.378,0.591 -10.109,-0.907c-5.486,-3.008 -15.94,-19.006 -17.699,-18.664c-1.76,0.343 -13.685,25.468 -36.083,32.27c-3.479,1.056 -12.26,1.269 -15.483,-0.581c-7.139,-4.095 -5.635,-12.942 -4.325,-18.104c2.388,-9.411 13.265,-27.431 16.3,-31.18c-2.9,-0.965 -5.858,-1.839 -8.782,-2.739c-8.978,-2.768 -25.337,-11.242 -28.997,-21.231c-2.037,-5.561 -2.272,-9.461 4.913,-12.751c11.869,-5.434 27.668,0.947 41.185,2.423c-1.046,-11.92 -19.45,-27.857 -8.168,-39.866c2.927,-3.116 6.051,-4.546 10.378,-4.499c8.385,0.092 19.341,11.978 25.345,19.549c1.693,2.133 2.993,3.925 3.729,5.011c0.887,1.309 2.994,6.092 4.747,10.291c1.128,2.702 2.111,5.165 2.521,6.296c0.888,2.45 2.269,2.219 3.148,1.741c0.251,-0.19 0.521,-0.391 0.82,-0.607l0.002,-0.001v0c5.178,-3.721 17.237,-10.839 22.15,-9.075c3.541,1.272 5.278,3.555 5.736,6.925c1.543,11.408 -8.754,23.737 -17.847,29.797zM253.204,132.417h0.001c-7.336,-7.009 -13.525,-17.354 -23.268,-15.983c-3.385,0.477 -5.962,1.594 -7.289,4.735c-5.143,12.184 10.872,24.151 10.543,37.727c-0.028,1.185 -1.017,1.772 -2.594,1.722c-9.163,-0.284 -37.228,-10.187 -42.649,-0.638c-4.421,7.788 10.989,18.664 16.767,21.868c4.132,2.291 15.483,6.768 21.091,7.971c-2.614,5.385 -9.046,14.842 -14.704,25.117c-3.045,5.532 -6.491,12.836 -3.46,19.129c0.9,1.867 3.407,4.086 5.589,4.398c6.611,0.944 18.721,-1.823 25.549,-8.227c7.412,-6.95 19.344,-25.523 21.557,-25.564c2.212,-0.042 19.417,26.872 27.146,20.018c4.491,-3.979 2.642,-13.92 1.266,-18.934c-2.258,-8.214 -9.893,-21.182 -11.979,-24.227c7.301,-3.118 26.922,-24.067 16.434,-31.05c-4.806,-3.202 -16.728,6.41 -21.441,8.273c-0.264,0.104 -0.509,0.14 -0.74,0.147c-3.211,0.519 -3.648,-1.399 -6.578,-8.732c-3.14,-7.863 -11.24,-17.75 -11.241,-17.75z" fill="#000000"/></g></g></svg>